<mxfile host="app.diagrams.net" modified="2024-03-12T21:34:35.271Z" agent="Mozilla/5.0 (Windows NT 10.0; Win64; x64) AppleWebKit/537.36 (KHTML, like Gecko) Chrome/122.0.0.0 Safari/537.36" etag="S-ObLgHnV-bFlGoRdA_p" version="24.0.5" type="github">
  <diagram name="Page-1" id="_gQ4AwaeeIdLY-QdIsuz">
    <mxGraphModel dx="1656" dy="522" grid="1" gridSize="10" guides="1" tooltips="1" connect="1" arrows="1" fold="1" page="1" pageScale="1" pageWidth="827" pageHeight="1169" math="0" shadow="0">
      <root>
        <mxCell id="0" />
        <mxCell id="1" parent="0" />
        <mxCell id="Rxjro5RmvX5wUSmLxjry-1" value="" style="shape=internalStorage;whiteSpace=wrap;html=1;backgroundOutline=1;" parent="1" vertex="1">
          <mxGeometry x="201" y="100" width="180" height="170" as="geometry" />
        </mxCell>
        <mxCell id="Rxjro5RmvX5wUSmLxjry-2" value="book" style="text;html=1;align=center;verticalAlign=middle;resizable=0;points=[];autosize=1;strokeColor=none;fillColor=none;" parent="1" vertex="1">
          <mxGeometry x="266" y="100" width="50" height="30" as="geometry" />
        </mxCell>
        <mxCell id="Rxjro5RmvX5wUSmLxjry-3" value="PK" style="text;html=1;align=center;verticalAlign=middle;resizable=0;points=[];autosize=1;strokeColor=none;fillColor=none;" parent="1" vertex="1">
          <mxGeometry x="191" y="120" width="40" height="30" as="geometry" />
        </mxCell>
        <mxCell id="Rxjro5RmvX5wUSmLxjry-5" value="bookID" style="text;html=1;align=center;verticalAlign=middle;resizable=0;points=[];autosize=1;strokeColor=none;fillColor=none;" parent="1" vertex="1">
          <mxGeometry x="221" y="120" width="60" height="30" as="geometry" />
        </mxCell>
        <mxCell id="Rxjro5RmvX5wUSmLxjry-12" value="" style="shape=internalStorage;whiteSpace=wrap;html=1;backgroundOutline=1;" parent="1" vertex="1">
          <mxGeometry x="201" y="300" width="180" height="170" as="geometry" />
        </mxCell>
        <mxCell id="Rxjro5RmvX5wUSmLxjry-13" value="bookLoan" style="text;html=1;align=center;verticalAlign=middle;resizable=0;points=[];autosize=1;strokeColor=none;fillColor=none;" parent="1" vertex="1">
          <mxGeometry x="251" y="300" width="80" height="30" as="geometry" />
        </mxCell>
        <mxCell id="Rxjro5RmvX5wUSmLxjry-16" value="" style="shape=internalStorage;whiteSpace=wrap;html=1;backgroundOutline=1;" parent="1" vertex="1">
          <mxGeometry x="-60" y="100" width="180" height="170" as="geometry" />
        </mxCell>
        <mxCell id="Rxjro5RmvX5wUSmLxjry-17" value="publisher" style="text;html=1;align=center;verticalAlign=middle;resizable=0;points=[];autosize=1;strokeColor=none;fillColor=none;" parent="1" vertex="1">
          <mxGeometry x="-5" y="100" width="70" height="30" as="geometry" />
        </mxCell>
        <mxCell id="Rxjro5RmvX5wUSmLxjry-18" value="PK" style="text;html=1;align=center;verticalAlign=middle;resizable=0;points=[];autosize=1;strokeColor=none;fillColor=none;" parent="1" vertex="1">
          <mxGeometry x="-70" y="120" width="40" height="30" as="geometry" />
        </mxCell>
        <mxCell id="Rxjro5RmvX5wUSmLxjry-20" value="" style="shape=internalStorage;whiteSpace=wrap;html=1;backgroundOutline=1;dx=40;dy=20;" parent="1" vertex="1">
          <mxGeometry x="470" y="100" width="180" height="170" as="geometry" />
        </mxCell>
        <mxCell id="Rxjro5RmvX5wUSmLxjry-21" value="bookAuthor" style="text;html=1;align=center;verticalAlign=middle;resizable=0;points=[];autosize=1;strokeColor=none;fillColor=none;" parent="1" vertex="1">
          <mxGeometry x="520" y="100" width="80" height="30" as="geometry" />
        </mxCell>
        <mxCell id="Rxjro5RmvX5wUSmLxjry-22" value="PKFK" style="text;html=1;align=center;verticalAlign=middle;resizable=0;points=[];autosize=1;strokeColor=none;fillColor=none;" parent="1" vertex="1">
          <mxGeometry x="465" y="120" width="50" height="30" as="geometry" />
        </mxCell>
        <mxCell id="Rxjro5RmvX5wUSmLxjry-24" value="" style="shape=internalStorage;whiteSpace=wrap;html=1;backgroundOutline=1;" parent="1" vertex="1">
          <mxGeometry x="470" y="300" width="180" height="170" as="geometry" />
        </mxCell>
        <mxCell id="Rxjro5RmvX5wUSmLxjry-25" value="borrower" style="text;html=1;align=center;verticalAlign=middle;resizable=0;points=[];autosize=1;strokeColor=none;fillColor=none;" parent="1" vertex="1">
          <mxGeometry x="525" y="300" width="70" height="30" as="geometry" />
        </mxCell>
        <mxCell id="Rxjro5RmvX5wUSmLxjry-26" value="PK" style="text;html=1;align=center;verticalAlign=middle;resizable=0;points=[];autosize=1;strokeColor=none;fillColor=none;" parent="1" vertex="1">
          <mxGeometry x="460" y="320" width="40" height="30" as="geometry" />
        </mxCell>
        <mxCell id="Rxjro5RmvX5wUSmLxjry-27" value="borroName" style="text;html=1;align=center;verticalAlign=middle;resizable=0;points=[];autosize=1;strokeColor=none;fillColor=none;" parent="1" vertex="1">
          <mxGeometry x="489" y="340" width="80" height="30" as="geometry" />
        </mxCell>
        <mxCell id="Rxjro5RmvX5wUSmLxjry-28" value="" style="shape=internalStorage;whiteSpace=wrap;html=1;backgroundOutline=1;" parent="1" vertex="1">
          <mxGeometry x="470" y="510" width="180" height="170" as="geometry" />
        </mxCell>
        <mxCell id="Rxjro5RmvX5wUSmLxjry-29" value="libraryBranch" style="text;html=1;align=center;verticalAlign=middle;resizable=0;points=[];autosize=1;strokeColor=none;fillColor=none;" parent="1" vertex="1">
          <mxGeometry x="515" y="510" width="90" height="30" as="geometry" />
        </mxCell>
        <mxCell id="Rxjro5RmvX5wUSmLxjry-30" value="PK" style="text;html=1;align=center;verticalAlign=middle;resizable=0;points=[];autosize=1;strokeColor=none;fillColor=none;" parent="1" vertex="1">
          <mxGeometry x="460" y="530" width="40" height="30" as="geometry" />
        </mxCell>
        <mxCell id="Rxjro5RmvX5wUSmLxjry-32" value="" style="shape=internalStorage;whiteSpace=wrap;html=1;backgroundOutline=1;dx=40;dy=20;" parent="1" vertex="1">
          <mxGeometry x="720" y="100" width="180" height="170" as="geometry" />
        </mxCell>
        <mxCell id="Rxjro5RmvX5wUSmLxjry-33" value="bookCopy&lt;div&gt;&lt;br&gt;&lt;/div&gt;" style="text;html=1;align=center;verticalAlign=middle;resizable=0;points=[];autosize=1;strokeColor=none;fillColor=none;" parent="1" vertex="1">
          <mxGeometry x="780" y="100" width="80" height="40" as="geometry" />
        </mxCell>
        <mxCell id="Rxjro5RmvX5wUSmLxjry-34" value="authorName" style="text;html=1;align=center;verticalAlign=middle;resizable=0;points=[];autosize=1;strokeColor=none;fillColor=none;" parent="1" vertex="1">
          <mxGeometry x="505" y="120" width="90" height="30" as="geometry" />
        </mxCell>
        <mxCell id="Rxjro5RmvX5wUSmLxjry-35" value="pubName" style="text;html=1;align=center;verticalAlign=middle;resizable=0;points=[];autosize=1;strokeColor=none;fillColor=none;" parent="1" vertex="1">
          <mxGeometry x="-40" y="120" width="80" height="30" as="geometry" />
        </mxCell>
        <mxCell id="Rxjro5RmvX5wUSmLxjry-36" value="title" style="text;html=1;align=center;verticalAlign=middle;resizable=0;points=[];autosize=1;strokeColor=none;fillColor=none;" parent="1" vertex="1">
          <mxGeometry x="226" y="160" width="40" height="30" as="geometry" />
        </mxCell>
        <mxCell id="Rxjro5RmvX5wUSmLxjry-37" value="pubAddress&lt;div&gt;&lt;br&gt;&lt;/div&gt;" style="text;html=1;align=center;verticalAlign=middle;resizable=0;points=[];autosize=1;strokeColor=none;fillColor=none;" parent="1" vertex="1">
          <mxGeometry x="-40" y="140" width="90" height="40" as="geometry" />
        </mxCell>
        <mxCell id="Rxjro5RmvX5wUSmLxjry-38" value="pubPhone&lt;div&gt;&lt;br&gt;&lt;/div&gt;" style="text;html=1;align=center;verticalAlign=middle;resizable=0;points=[];autosize=1;strokeColor=none;fillColor=none;" parent="1" vertex="1">
          <mxGeometry x="-40" y="165" width="80" height="40" as="geometry" />
        </mxCell>
        <mxCell id="Rxjro5RmvX5wUSmLxjry-39" value="branchId" style="text;html=1;align=center;verticalAlign=middle;resizable=0;points=[];autosize=1;strokeColor=none;fillColor=none;" parent="1" vertex="1">
          <mxGeometry x="489" y="530" width="70" height="30" as="geometry" />
        </mxCell>
        <mxCell id="Rxjro5RmvX5wUSmLxjry-40" value="branchName&lt;div&gt;&lt;br&gt;&lt;/div&gt;" style="text;html=1;align=center;verticalAlign=middle;resizable=0;points=[];autosize=1;strokeColor=none;fillColor=none;" parent="1" vertex="1">
          <mxGeometry x="490" y="560" width="90" height="40" as="geometry" />
        </mxCell>
        <mxCell id="Rxjro5RmvX5wUSmLxjry-41" value="branchAddress" style="text;html=1;align=center;verticalAlign=middle;resizable=0;points=[];autosize=1;strokeColor=none;fillColor=none;" parent="1" vertex="1">
          <mxGeometry x="490" y="585" width="100" height="30" as="geometry" />
        </mxCell>
        <mxCell id="Rxjro5RmvX5wUSmLxjry-42" value="noOfCopies" style="text;html=1;align=center;verticalAlign=middle;resizable=0;points=[];autosize=1;strokeColor=none;fillColor=none;" parent="1" vertex="1">
          <mxGeometry x="750" y="160" width="90" height="30" as="geometry" />
        </mxCell>
        <mxCell id="Rxjro5RmvX5wUSmLxjry-43" value="cardNo" style="text;html=1;align=center;verticalAlign=middle;resizable=0;points=[];autosize=1;strokeColor=none;fillColor=none;" parent="1" vertex="1">
          <mxGeometry x="490" y="320" width="60" height="30" as="geometry" />
        </mxCell>
        <mxCell id="Rxjro5RmvX5wUSmLxjry-44" value="dateOut" style="text;html=1;align=center;verticalAlign=middle;resizable=0;points=[];autosize=1;strokeColor=none;fillColor=none;" parent="1" vertex="1">
          <mxGeometry x="211" y="380" width="70" height="30" as="geometry" />
        </mxCell>
        <mxCell id="Rxjro5RmvX5wUSmLxjry-45" value="dueDate" style="text;html=1;align=center;verticalAlign=middle;resizable=0;points=[];autosize=1;strokeColor=none;fillColor=none;" parent="1" vertex="1">
          <mxGeometry x="211" y="400" width="70" height="30" as="geometry" />
        </mxCell>
        <mxCell id="Rxjro5RmvX5wUSmLxjry-46" value="borroAddress" style="text;html=1;align=center;verticalAlign=middle;resizable=0;points=[];autosize=1;strokeColor=none;fillColor=none;" parent="1" vertex="1">
          <mxGeometry x="485" y="360" width="100" height="30" as="geometry" />
        </mxCell>
        <mxCell id="Rxjro5RmvX5wUSmLxjry-47" value="borroPhone" style="text;html=1;align=center;verticalAlign=middle;resizable=0;points=[];autosize=1;strokeColor=none;fillColor=none;" parent="1" vertex="1">
          <mxGeometry x="485" y="380" width="90" height="30" as="geometry" />
        </mxCell>
        <mxCell id="Rxjro5RmvX5wUSmLxjry-48" value="PKFK" style="text;html=1;align=center;verticalAlign=middle;resizable=0;points=[];autosize=1;strokeColor=none;fillColor=none;" parent="1" vertex="1">
          <mxGeometry x="465" y="140" width="50" height="30" as="geometry" />
        </mxCell>
        <mxCell id="ipa_z52fyP7NqepizZTi-1" value="FK" style="text;html=1;align=center;verticalAlign=middle;resizable=0;points=[];autosize=1;strokeColor=none;fillColor=none;" vertex="1" parent="1">
          <mxGeometry x="191" y="140" width="40" height="30" as="geometry" />
        </mxCell>
        <mxCell id="ipa_z52fyP7NqepizZTi-2" value="publisher_name" style="text;html=1;align=center;verticalAlign=middle;resizable=0;points=[];autosize=1;strokeColor=none;fillColor=none;" vertex="1" parent="1">
          <mxGeometry x="221" y="140" width="110" height="30" as="geometry" />
        </mxCell>
        <mxCell id="ipa_z52fyP7NqepizZTi-4" value="bookID" style="text;html=1;align=center;verticalAlign=middle;resizable=0;points=[];autosize=1;strokeColor=none;fillColor=none;" vertex="1" parent="1">
          <mxGeometry x="505" y="140" width="60" height="30" as="geometry" />
        </mxCell>
        <mxCell id="ipa_z52fyP7NqepizZTi-5" value="PKFK" style="text;html=1;align=center;verticalAlign=middle;resizable=0;points=[];autosize=1;strokeColor=none;fillColor=none;" vertex="1" parent="1">
          <mxGeometry x="710" y="121" width="50" height="30" as="geometry" />
        </mxCell>
        <mxCell id="ipa_z52fyP7NqepizZTi-6" value="bookId" style="text;html=1;align=center;verticalAlign=middle;resizable=0;points=[];autosize=1;strokeColor=none;fillColor=none;" vertex="1" parent="1">
          <mxGeometry x="750" y="120" width="60" height="30" as="geometry" />
        </mxCell>
        <mxCell id="ipa_z52fyP7NqepizZTi-7" value="PKFK" style="text;html=1;align=center;verticalAlign=middle;resizable=0;points=[];autosize=1;strokeColor=none;fillColor=none;" vertex="1" parent="1">
          <mxGeometry x="710" y="140" width="50" height="30" as="geometry" />
        </mxCell>
        <mxCell id="ipa_z52fyP7NqepizZTi-8" value="branchId" style="text;html=1;align=center;verticalAlign=middle;resizable=0;points=[];autosize=1;strokeColor=none;fillColor=none;" vertex="1" parent="1">
          <mxGeometry x="750" y="140" width="70" height="30" as="geometry" />
        </mxCell>
        <mxCell id="ipa_z52fyP7NqepizZTi-9" value="bookID" style="text;html=1;align=center;verticalAlign=middle;resizable=0;points=[];autosize=1;strokeColor=none;fillColor=none;" vertex="1" parent="1">
          <mxGeometry x="216" y="320" width="60" height="30" as="geometry" />
        </mxCell>
        <mxCell id="ipa_z52fyP7NqepizZTi-10" value="PKFK" style="text;html=1;align=center;verticalAlign=middle;resizable=0;points=[];autosize=1;strokeColor=none;fillColor=none;" vertex="1" parent="1">
          <mxGeometry x="151" y="320" width="50" height="30" as="geometry" />
        </mxCell>
        <mxCell id="ipa_z52fyP7NqepizZTi-11" value="PKFK" style="text;html=1;align=center;verticalAlign=middle;resizable=0;points=[];autosize=1;strokeColor=none;fillColor=none;" vertex="1" parent="1">
          <mxGeometry x="151" y="340" width="50" height="30" as="geometry" />
        </mxCell>
        <mxCell id="ipa_z52fyP7NqepizZTi-12" value="branchId" style="text;html=1;align=center;verticalAlign=middle;resizable=0;points=[];autosize=1;strokeColor=none;fillColor=none;" vertex="1" parent="1">
          <mxGeometry x="216" y="340" width="70" height="30" as="geometry" />
        </mxCell>
        <mxCell id="ipa_z52fyP7NqepizZTi-13" value="PKFK" style="text;html=1;align=center;verticalAlign=middle;resizable=0;points=[];autosize=1;strokeColor=none;fillColor=none;" vertex="1" parent="1">
          <mxGeometry x="151" y="360" width="50" height="30" as="geometry" />
        </mxCell>
        <mxCell id="ipa_z52fyP7NqepizZTi-14" value="cardNo" style="text;html=1;align=center;verticalAlign=middle;resizable=0;points=[];autosize=1;strokeColor=none;fillColor=none;" vertex="1" parent="1">
          <mxGeometry x="216" y="360" width="60" height="30" as="geometry" />
        </mxCell>
        <mxCell id="ipa_z52fyP7NqepizZTi-15" value="" style="edgeStyle=entityRelationEdgeStyle;fontSize=12;html=1;endArrow=ERoneToMany;startArrow=ERmandOne;rounded=0;" edge="1" parent="1">
          <mxGeometry width="100" height="100" relative="1" as="geometry">
            <mxPoint x="380" y="130" as="sourcePoint" />
            <mxPoint x="470" y="130" as="targetPoint" />
          </mxGeometry>
        </mxCell>
        <mxCell id="ipa_z52fyP7NqepizZTi-16" value="" style="edgeStyle=entityRelationEdgeStyle;fontSize=12;html=1;endArrow=ERoneToMany;startArrow=ERmandOne;rounded=0;exitX=1.011;exitY=0.206;exitDx=0;exitDy=0;exitPerimeter=0;" edge="1" parent="1" source="Rxjro5RmvX5wUSmLxjry-16">
          <mxGeometry width="100" height="100" relative="1" as="geometry">
            <mxPoint x="130" y="135" as="sourcePoint" />
            <mxPoint x="201" y="134.5" as="targetPoint" />
          </mxGeometry>
        </mxCell>
      </root>
    </mxGraphModel>
  </diagram>
</mxfile>
